<svg xmlns="http://www.w3.org/2000/svg" viewBox="0 0 512 512">
  <defs>
    <radialGradient id="bg" cx="50%" cy="30%" r="65%">
      <stop offset="0%" stop-color="#1a1e3a"/>
      <stop offset="100%" stop-color="#0d0f1a"/>
    </radialGradient>
    <clipPath id="pi-clip">
      <path d="M248.53 404.24L143.11 404.24L143.11 384.15L168.18 384.15L168.18 247.85L143.11 247.85L143.11 227.76L368.89 227.76L368.89 247.85L343.66 247.85L343.66 384.15L368.89 384.15L368.89 404.24L263.14 404.24L263.14 384.15L284.89 384.15L284.89 247.85L226.95 247.85L226.95 384.15L248.53 384.15"/>
    </clipPath>
  </defs>

  <!-- Background -->
  <rect width="512" height="512" fill="url(#bg)"/>

  <!-- π glyph in cream -->
  <path d="M248.53 404.24L143.11 404.24L143.11 384.15L168.18 384.15L168.18 247.85L143.11 247.85L143.11 227.76L368.89 227.76L368.89 247.85L343.66 247.85L343.66 384.15L368.89 384.15L368.89 404.24L263.14 404.24L263.14 384.15L284.89 384.15L284.89 247.85L226.95 247.85L226.95 384.15L248.53 384.15" fill="#efeae0"/>

  <!-- Cyan crossbar — clipped to the π shape so it only colours the bar -->
  <rect
    x="137.1" y="236.6"
    width="237.8" height="38.8"
    fill="#6dd6e8"
    clip-path="url(#pi-clip)"
  />
</svg>